<?xml version="1.0" standalone="no"?>
<!DOCTYPE svg PUBLIC "-//W3C//DTD SVG 20010904//EN"
 "http://www.w3.org/TR/2001/REC-SVG-20010904/DTD/svg10.dtd">
<svg version="1.0" xmlns="http://www.w3.org/2000/svg"
 width="644.000000pt" height="644.000000pt" viewBox="0 0 644.000000 644.000000"
 preserveAspectRatio="xMidYMid meet">
<metadata>
Created by potrace 1.15, written by Peter Selinger 2001-2017
</metadata>
<g transform="translate(0.000000,644.000000) scale(0.100000,-0.100000)"
fill="#000000" stroke="none">
<path d="M1205 5801 c-153 -16 -186 -50 -87 -89 72 -28 147 -85 187 -140 l30
-44 8 -591 c6 -443 5 -615 -4 -682 -20 -154 -22 -273 -5 -395 24 -172 21 -271
-10 -361 -25 -72 -26 -79 -20 -259 3 -102 12 -261 21 -354 13 -138 14 -179 4
-220 -15 -65 -14 -104 8 -173 17 -53 17 -57 -5 -141 -27 -107 -27 -140 -1
-327 22 -157 22 -260 1 -850 l-7 -181 -48 -67 c-56 -79 -69 -127 -41 -158 49
-54 128 -65 329 -47 106 10 234 11 530 5 215 -4 467 -6 560 -2 94 3 312 10
485 15 173 5 357 15 409 21 198 23 348 75 669 234 125 61 271 126 324 144 243
81 548 365 749 697 85 142 119 226 129 318 5 46 26 140 49 212 51 165 71 244
121 489 23 116 53 230 70 272 34 81 38 146 15 212 -8 23 -21 95 -30 159 -9 64
-24 164 -35 222 -10 58 -26 158 -35 223 -19 142 -25 159 -75 213 -28 31 -44
61 -60 115 -31 107 -36 120 -114 274 -130 257 -313 507 -493 675 -115 107
-200 162 -336 220 -62 26 -143 63 -182 82 -38 20 -103 47 -143 62 -92 33 -398
108 -572 140 -304 56 -347 58 -1325 67 -500 4 -930 10 -955 12 -25 3 -76 2
-115 -2z m1608 -212 c28 -7 47 -23 73 -59 55 -76 76 -76 210 1 36 20 46 21 67
12 14 -7 34 -27 44 -45 17 -30 18 -69 18 -483 0 -247 -4 -580 -9 -740 -6 -216
-5 -340 4 -485 21 -303 18 -524 -9 -730 -17 -126 -24 -228 -25 -365 -1 -188
-1 -191 27 -252 l28 -63 -10 -282 c-7 -180 -16 -307 -26 -348 -21 -93 -19
-204 6 -307 25 -103 31 -277 10 -335 -7 -21 -26 -49 -43 -63 -28 -24 -36 -26
-82 -19 -76 11 -115 6 -176 -22 -60 -27 -156 -43 -266 -44 -95 0 -381 28 -474
46 -155 31 -266 106 -320 218 -56 115 -65 170 -63 386 1 107 5 953 10 1880 l8
1685 27 47 c31 51 76 87 216 172 224 135 287 157 538 185 87 10 164 19 169 20
6 0 27 -4 48 -10z m846 -138 c58 -26 151 -65 206 -86 176 -66 265 -120 457
-278 62 -52 154 -121 204 -154 152 -102 205 -174 313 -429 33 -76 75 -168 94
-204 58 -108 90 -261 107 -509 6 -86 15 -210 20 -276 15 -177 13 -229 -15
-341 -13 -56 -31 -157 -39 -225 -20 -157 -35 -213 -90 -338 -57 -130 -87 -181
-146 -246 -29 -32 -56 -76 -69 -111 -95 -257 -100 -264 -232 -335 -87 -46
-115 -69 -205 -161 -81 -83 -112 -123 -134 -172 -51 -113 -177 -198 -310 -211
-87 -8 -112 -21 -139 -74 -23 -43 -78 -95 -127 -119 -53 -25 -85 -9 -106 53
-23 66 -22 126 2 227 26 107 25 194 -2 376 -28 190 -31 591 -4 682 32 109 38
190 32 420 -4 171 -10 249 -26 325 -24 113 -28 364 -10 600 5 78 7 404 3 810
-3 374 -3 701 1 727 9 62 38 98 78 98 17 0 79 -22 137 -49z"/>
</g>
</svg>
