<?xml version="1.0" encoding="UTF-8" standalone="no"?>
<svg
   xmlns:dc="http://purl.org/dc/elements/1.1/"
   xmlns:cc="http://creativecommons.org/ns#"
   xmlns:rdf="http://www.w3.org/1999/02/22-rdf-syntax-ns#"
   xmlns:svg="http://www.w3.org/2000/svg"
   xmlns="http://www.w3.org/2000/svg"
   xmlns:sodipodi="http://sodipodi.sourceforge.net/DTD/sodipodi-0.dtd"
   xmlns:inkscape="http://www.inkscape.org/namespaces/inkscape"
   version="1.0"
   width="644.000000pt"
   height="644.000000pt"
   viewBox="0 0 644.000000 644.000000"
   preserveAspectRatio="xMidYMid meet"
   id="svg871"
   sodipodi:docname="D1a.svg"
   inkscape:version="0.92.3 (2405546, 2018-03-11)">
  <defs
     id="defs875" />
  <sodipodi:namedview
     pagecolor="#ffffff"
     bordercolor="#666666"
     borderopacity="1"
     objecttolerance="10"
     gridtolerance="10"
     guidetolerance="10"
     inkscape:pageopacity="0"
     inkscape:pageshadow="2"
     inkscape:window-width="1366"
     inkscape:window-height="682"
     id="namedview873"
     showgrid="false"
     inkscape:zoom="0.40515901"
     inkscape:cx="556.64202"
     inkscape:cy="395.95238"
     inkscape:window-x="0"
     inkscape:window-y="31"
     inkscape:window-maximized="1"
     inkscape:current-layer="g869" />
  <metadata
     id="metadata865">
Created by potrace 1.15, written by Peter Selinger 2001-2017
<rdf:RDF>
  <cc:Work
     rdf:about="">
    <dc:format>image/svg+xml</dc:format>
    <dc:type
       rdf:resource="http://purl.org/dc/dcmitype/StillImage" />
    <dc:title></dc:title>
  </cc:Work>
</rdf:RDF>
</metadata>
  <g
     transform="translate(0.000000,644.000000) scale(0.100000,-0.100000)"
     fill="#000000"
     stroke="none"
     id="g869">
    <path
       style="opacity:1;vector-effect:none;fill:#000000;fill-opacity:1;stroke:none;stroke-width:0.13333334;stroke-linecap:butt;stroke-linejoin:miter;stroke-miterlimit:4;stroke-dasharray:none;stroke-dashoffset:0;stroke-opacity:1"
       d="M 169.0332 84.716797 C 166.26654 84.766797 163.26602 84.932552 160.66602 85.199219 C 140.26602 87.332552 135.86641 91.866406 149.06641 97.066406 C 158.66641 100.79974 168.66667 108.39909 174 115.73242 L 178 121.59961 L 179.06641 200.40039 C 179.86641 259.46706 179.7332 282.40065 178.5332 291.33398 C 175.86654 311.86732 175.60052 327.73333 177.86719 344 C 181.06719 366.93333 180.66654 380.13281 176.5332 392.13281 C 173.19987 401.73281 173.06719 402.66602 173.86719 426.66602 C 174.26719 440.26602 175.46602 461.46719 176.66602 473.86719 C 178.39935 492.26719 178.53255 497.73255 177.19922 503.19922 C 175.19922 511.86589 175.33424 517.06758 178.26758 526.26758 C 180.53424 533.33424 180.53294 533.86641 177.59961 545.06641 C 173.99961 559.33307 174.00013 563.73268 177.4668 588.66602 C 180.40013 609.59935 180.39961 623.33333 177.59961 702 L 176.66602 726.13281 L 170.26758 735.06641 C 162.80091 745.59974 161.06745 751.99948 164.80078 756.13281 C 171.33411 763.33281 181.86601 764.80039 208.66602 762.40039 C 222.79935 761.06706 239.86732 760.93242 279.33398 761.73242 C 308.00065 762.26576 341.6 762.53333 354 762 C 366.53333 761.6 395.59935 760.66667 418.66602 760 C 441.73268 759.33333 466.26589 757.99922 473.19922 757.19922 C 499.59922 754.13255 519.60039 747.2 562.40039 726 C 579.06706 717.86667 598.53294 709.20078 605.59961 706.80078 C 637.99961 696.00078 678.6668 658.13386 705.4668 613.86719 C 716.80013 594.93385 721.33268 583.73346 722.66602 571.4668 C 723.33268 565.33346 726.13255 552.79922 729.19922 543.19922 C 735.99922 521.19922 738.66732 510.66667 745.33398 478 C 748.40065 462.53333 752.39935 447.33242 754.66602 441.73242 C 759.19935 430.93242 759.73268 422.2668 756.66602 413.4668 C 755.59935 410.40013 753.86602 400.80091 752.66602 392.26758 C 751.46602 383.73424 749.46667 370.39935 748 362.66602 C 746.66667 354.93268 744.53398 341.60026 743.33398 332.93359 C 740.80065 314.00026 740.00065 311.7332 733.33398 304.5332 C 729.60065 300.39987 727.46732 296.39922 725.33398 289.19922 C 721.20065 274.93255 720.53281 273.19935 710.13281 252.66602 C 692.79948 218.39935 668.40039 185.06602 644.40039 162.66602 C 629.06706 148.39935 617.73294 141.06732 599.59961 133.33398 C 591.33294 129.86732 580.53398 124.93372 575.33398 122.40039 C 570.26732 119.73372 561.60091 116.13281 556.26758 114.13281 C 544.00091 109.73281 503.2 99.733464 480 95.466797 C 439.46667 88.00013 433.73399 87.733203 303.33398 86.533203 C 236.66732 85.99987 179.33333 85.20026 176 84.933594 C 174.33333 84.733594 171.79987 84.666797 169.0332 84.716797 z M 363.67773 112.74805 C 368.73162 112.69674 368.68246 121.33509 369.08594 125.16602 C 369.19296 126.77498 370.40625 134.52069 370.40625 189.7207 C 370.40625 222.65402 371.10807 247.30924 370.44141 268.64258 C 369.64141 297.44258 369.77461 313.97526 370.97461 333.30859 C 373.77461 373.70859 371.6293 387.46691 368.0293 414.93359 C 365.76263 431.73359 367.2974 457.67473 367.16406 475.94141 C 367.03073 501.00807 366.38337 507.61407 367.0625 516.94727 L 370.48633 542.00586 L 369.46289 562.94727 C 368.52956 586.94727 367.32943 603.87906 365.99609 609.3457 C 363.19609 621.74573 363.46159 636.54598 366.79492 650.2793 C 370.12826 664.01263 372.67305 702.92096 369.87305 710.6543 C 369.01601 713.22543 367.08337 726.93765 365.00586 730.14453 C 361.45398 730.44765 357.73197 730.63088 353.86719 730.66602 C 341.20052 730.66602 303.06602 726.9332 290.66602 724.5332 C 269.99935 720.39987 255.2 710.40013 248 695.4668 C 240.53333 680.13346 239.33294 672.8 239.59961 644 C 239.73294 629.73333 240.26693 516.93399 240.93359 393.33398 L 242 168.66602 L 245.59961 162.40039 C 249.73294 155.60039 255.73372 150.80013 274.40039 139.4668 C 304.26706 121.4668 312.66615 118.53411 346.13281 114.80078 C 353.69548 113.93151 359.53929 113.24534 363.67773 112.74805 z M 418.94141 118.875 C 419.83906 118.88672 420.68242 119.14961 421.73242 119.59961 C 423.59909 120.53294 426.26628 123.19961 427.59961 125.59961 C 429.86628 129.59961 430 134.8 430 190 C 430 222.93333 429.46745 267.33268 428.80078 288.66602 C 428.00078 317.46602 428.13398 334.00065 429.33398 353.33398 C 432.13398 393.73399 431.73281 423.19935 428.13281 450.66602 C 425.86615 467.46602 424.93411 481.06732 424.80078 499.33398 C 424.66745 524.40065 424.66706 524.80026 428.40039 532.93359 L 432.13281 541.33398 L 430.80078 578.93359 C 429.86745 602.93359 428.66732 619.86732 427.33398 625.33398 C 424.53398 637.73398 424.79948 652.53424 428.13281 666.26758 C 431.46615 680.00091 432.2668 703.20026 429.4668 710.93359 C 428.53346 713.73359 425.99909 717.46732 423.73242 719.33398 C 419.99909 722.53398 418.93411 722.80052 412.80078 721.86719 C 411.05697 721.61479 409.49757 721.44941 408.00586 721.32812 C 404.25165 718.59859 402.09384 699.49312 400.13867 693.7207 C 397.07199 684.9207 395.46211 661.21275 398.66211 647.74609 C 402.12879 633.47941 401.99453 621.87996 398.39453 597.61328 C 394.66121 572.27996 394.26134 518.81302 397.86133 506.67969 C 402.12801 492.14634 402.92891 481.34634 402.12891 450.67969 C 401.59556 427.87967 402.02982 397.73294 399.89648 387.59961 C 396.69648 372.53294 397.90664 354.77526 400.30664 323.30859 C 400.97331 312.90859 400.006 289.18607 399.47266 235.05273 C 399.07267 185.18607 399.07212 141.58581 399.60547 138.11914 C 400.68931 130.65257 403.37389 126.49947 405.77734 125.08008 C 405.95057 124.98967 406.11393 124.90809 406.29102 124.81445 C 406.31946 124.80204 406.34863 124.78507 406.37695 124.77344 L 406.37695 124.76953 C 408.28294 123.75964 410.39714 122.58041 412.80078 121.19922 C 415.80078 119.53255 417.44531 118.85547 418.94141 118.875 z M 469.59961 125.33398 C 471.86628 125.33398 480.13385 128.26719 487.86719 131.86719 C 495.60052 135.33385 508.00065 140.53398 515.33398 143.33398 C 538.80065 152.13398 550.66758 159.33372 576.26758 180.40039 C 584.53424 187.33372 596.80013 196.53359 603.4668 200.93359 C 623.73346 214.53359 630.79922 224.13281 645.19922 258.13281 C 649.59922 268.26615 655.19909 280.53398 657.73242 285.33398 C 665.46576 299.73398 669.73333 320.13255 672 353.19922 C 672.8 364.66589 673.99935 381.2 674.66602 390 C 676.66602 413.6 676.39935 420.53346 672.66602 435.4668 C 670.93268 442.93346 668.53346 456.40013 667.4668 465.4668 C 664.80013 486.40013 662.80013 493.86654 655.4668 510.5332 C 647.8668 527.86654 643.86667 534.66732 636 543.33398 C 632.13333 547.60065 628.53411 553.46615 626.80078 558.13281 C 614.13411 592.39948 613.46719 593.33411 595.86719 602.80078 C 584.26719 608.93411 580.5332 612.00091 568.5332 624.26758 C 557.7332 635.33425 553.59935 640.66589 550.66602 647.19922 C 543.86602 662.26589 527.06732 673.60065 509.33398 675.33398 C 497.73398 676.40065 494.40078 678.13255 490.80078 685.19922 C 487.73411 690.93255 480.40052 697.86641 473.86719 701.06641 C 466.80052 704.39974 462.53242 702.26667 459.73242 694 C 456.66576 685.2 456.8 677.19909 460 663.73242 C 463.46667 649.46575 463.33242 637.86628 459.73242 613.59961 C 455.99909 588.26628 455.59922 534.79935 459.19922 522.66602 C 463.46589 508.13268 464.2668 497.33268 463.4668 466.66602 C 462.93346 443.86602 462.13333 433.46732 460 423.33398 C 456.8 408.26732 456.26602 374.80065 458.66602 343.33398 C 459.33268 332.93398 459.59974 289.46732 459.06641 235.33398 C 458.66641 185.46732 458.66589 141.86706 459.19922 138.40039 C 460.39922 130.13372 464.26628 125.33398 469.59961 125.33398 z "
       transform="matrix(7.4999998,0,0,-7.4999998,0,6440)"
       id="path867" />
  </g>
</svg>
