<?xml version="1.0" encoding="UTF-8" standalone="no"?>
<svg
   xmlns:dc="http://purl.org/dc/elements/1.1/"
   xmlns:cc="http://creativecommons.org/ns#"
   xmlns:rdf="http://www.w3.org/1999/02/22-rdf-syntax-ns#"
   xmlns:svg="http://www.w3.org/2000/svg"
   xmlns="http://www.w3.org/2000/svg"
   xmlns:sodipodi="http://sodipodi.sourceforge.net/DTD/sodipodi-0.dtd"
   xmlns:inkscape="http://www.inkscape.org/namespaces/inkscape"
   version="1.0"
   width="644.000000pt"
   height="644.000000pt"
   viewBox="0 0 644.000000 644.000000"
   preserveAspectRatio="xMidYMid meet"
   id="svg871"
   sodipodi:docname="D1c.svg"
   inkscape:version="0.92.3 (2405546, 2018-03-11)">
  <defs
     id="defs875" />
  <sodipodi:namedview
     pagecolor="#ffffff"
     bordercolor="#666666"
     borderopacity="1"
     objecttolerance="10"
     gridtolerance="10"
     guidetolerance="10"
     inkscape:pageopacity="0"
     inkscape:pageshadow="2"
     inkscape:window-width="1366"
     inkscape:window-height="682"
     id="namedview873"
     showgrid="false"
     inkscape:zoom="0.42656978"
     inkscape:cx="573.14225"
     inkscape:cy="416.88205"
     inkscape:window-x="0"
     inkscape:window-y="31"
     inkscape:window-maximized="1"
     inkscape:current-layer="layer1"
     showguides="true"
     inkscape:guide-bbox="true"
     inkscape:measure-start="318.509,520.087"
     inkscape:measure-end="97.7344,522.705"
     inkscape:snap-others="false"
     inkscape:object-nodes="false"
     inkscape:snap-nodes="false" />
  <metadata
     id="metadata865">
Created by potrace 1.15, written by Peter Selinger 2001-2017
<rdf:RDF>
  <cc:Work
     rdf:about="">
    <dc:format>image/svg+xml</dc:format>
    <dc:type
       rdf:resource="http://purl.org/dc/dcmitype/StillImage" />
    <dc:title></dc:title>
  </cc:Work>
</rdf:RDF>
</metadata>
  <g
     inkscape:groupmode="layer"
     id="layer1"
     inkscape:label="Layer 1"
     style="display:none">
    <g
       style="fill:#ff0000;stroke:none"
       transform="matrix(0.1,0,0,-0.1,594.76844,588.21633)"
       id="g862">
      <path
         inkscape:connector-curvature="0"
         d="m 1205,5801 c -153,-16 -186,-50 -87,-89 72,-28 147,-85 187,-140 l 30,-44 8,-591 c 6,-443 5,-615 -4,-682 -20,-154 -22,-273 -5,-395 24,-172 21,-271 -10,-361 -25,-72 -26,-79 -20,-259 3,-102 12,-261 21,-354 13,-138 14,-179 4,-220 -15,-65 -14,-104 8,-173 17,-53 17,-57 -5,-141 -27,-107 -27,-140 -1,-327 22,-157 22,-260 1,-850 l -7,-181 -48,-67 c -56,-79 -69,-127 -41,-158 49,-54 128,-65 329,-47 106,10 234,11 530,5 215,-4 467,-6 560,-2 94,3 312,10 485,15 173,5 357,15 409,21 198,23 348,75 669,234 125,61 271,126 324,144 243,81 548,365 749,697 85,142 119,226 129,318 5,46 26,140 49,212 51,165 71,244 121,489 23,116 53,230 70,272 34,81 38,146 15,212 -8,23 -21,95 -30,159 -9,64 -24,164 -35,222 -10,58 -26,158 -35,223 -19,142 -25,159 -75,213 -28,31 -44,61 -60,115 -31,107 -36,120 -114,274 -130,257 -313,507 -493,675 -115,107 -200,162 -336,220 -62,26 -143,63 -182,82 -38,20 -103,47 -143,62 -92,33 -398,108 -572,140 -304,56 -347,58 -1325,67 -500,4 -930,10 -955,12 -25,3 -76,2 -115,-2 z m 1608,-212 c 28,-7 47,-23 73,-59 55,-76 76,-76 210,1 36,20 46,21 67,12 14,-7 34,-27 44,-45 17,-30 18,-69 18,-483 0,-247 -4,-580 -9,-740 -6,-216 -5,-340 4,-485 21,-303 18,-524 -9,-730 -17,-126 -24,-228 -25,-365 -1,-188 -1,-191 27,-252 l 28,-63 -10,-282 c -7,-180 -16,-307 -26,-348 -21,-93 -19,-204 6,-307 25,-103 31,-277 10,-335 -7,-21 -26,-49 -43,-63 -28,-24 -36,-26 -82,-19 -76,11 -115,6 -176,-22 -60,-27 -156,-43 -266,-44 -95,0 -381,28 -474,46 -155,31 -266,106 -320,218 -56,115 -65,170 -63,386 1,107 5,953 10,1880 l 8,1685 27,47 c 31,51 76,87 216,172 224,135 287,157 538,185 87,10 164,19 169,20 6,0 27,-4 48,-10 z m 846,-138 c 58,-26 151,-65 206,-86 176,-66 265,-120 457,-278 62,-52 154,-121 204,-154 152,-102 205,-174 313,-429 33,-76 75,-168 94,-204 58,-108 90,-261 107,-509 6,-86 15,-210 20,-276 15,-177 13,-229 -15,-341 -13,-56 -31,-157 -39,-225 -20,-157 -35,-213 -90,-338 -57,-130 -87,-181 -146,-246 -29,-32 -56,-76 -69,-111 -95,-257 -100,-264 -232,-335 -87,-46 -115,-69 -205,-161 -81,-83 -112,-123 -134,-172 -51,-113 -177,-198 -310,-211 -87,-8 -112,-21 -139,-74 -23,-43 -78,-95 -127,-119 -53,-25 -85,-9 -106,53 -23,66 -22,126 2,227 26,107 25,194 -2,376 -28,190 -31,591 -4,682 32,109 38,190 32,420 -4,171 -10,249 -26,325 -24,113 -28,364 -10,600 5,78 7,404 3,810 -3,374 -3,701 1,727 9,62 38,98 78,98 17,0 79,-22 137,-49 z"
         id="path860"
         style="fill:#ff0000" />
    </g>
  </g>
  <g
     inkscape:groupmode="layer"
     id="layer2"
     inkscape:label="Layer 2"
     style="display:inline">
    <path
       style="display:inline;opacity:1;vector-effect:none;fill:#666666;fill-opacity:1;stroke:none;stroke-width:0.1;stroke-linecap:butt;stroke-linejoin:miter;stroke-miterlimit:4;stroke-dasharray:none;stroke-dashoffset:0;stroke-opacity:1"
       d="M 21.80127,3.69838 C 9.70402,1.25496 -2.80641,10.827909 15.98878,14.596759 c 23.84914,8.09909 8.86069,42.78929 13.69583,62.74938 -0.37875,35.695691 0.8576,71.439531 -2.37422,107.015961 5.61708,24.56801 -0.7598,48.36614 -1.98752,72.62011 1.73752,26.00301 2.57072,52.32316 3.40418,77.87924 -2.32788,21.24767 -2.13967,43.23584 0.95145,65.03629 0.32267,28.30158 -1.1594,56.58459 -2.15262,84.86263 -8.70952,7.24474 -13.34427,15.97715 -9.71277,21.99151 3.61048,5.97956 15.4292,4.09213 26.72922,5.74548 51.3836,-3.38026 102.95842,1.39957 154.38919,-2.0382 35.4215,-0.58839 70.9817,-0.85813 102.75456,-18.82815 21.0242,-15.78113 63.5919,-23.19605 86.8051,-47.20878 17.1062,-13.84428 43.1539,-50.15679 52.9687,-89.51179 6.6868,-41.07838 15.6545,-48.11039 19.215,-94.40076 -2.3477,-21.91803 -6.0781,-50.06721 -10.9758,-64.50706 -5.3274,-23.69531 -14.6697,-56.57089 -28.83,-77.51804 -18.4094,-27.232881 -25.8549,-44.620211 -54.6417,-66.457771 -28.3349,-19.9659 -60.7694,-32.74219 -94.82816,-39.0437 C 223.49972,3.14075 178.35342,5.39433 127.77471,4.50592 114.73865,3.60892 85.40185,3.06254 65.55041,4.62589 50.97889,3.75394 36.34046,4.29423 21.80127,3.69838 Z m 178.22955,20.481259 c 9.5695,17.31629 2.8955,42.08897 5.0522,62.28888 0.6493,43.479211 -1.3483,86.956091 1.3563,130.385291 -1.7744,26.57107 -5.6972,52.99053 -3.7938,79.72084 -1.3727,17.54178 0.5806,34.95349 2.3579,52.28755 -0.294,22.33207 -3.5762,44.48698 -4.4766,66.67792 2.1874,20.46038 9.6925,45.18279 -3.2351,63.22806 -16.9414,11.36043 -39.68465,3.22718 -59.09154,5.7639 -25.01001,2.92199 -61.5835,-18.87011 -61.68094,-34.34293 -0.0974,-15.47282 0.19414,-53.34414 -0.0974,-82.79643 -0.29158,-29.45229 1.04535,-53.20333 0,-93.80994 -1.04535,-40.60661 0,-131.62631 0,-149.16005 0,-17.53374 -3.28166,-53.656151 6.03322,-80.276771 16.52368,-16.45265 32.30911,-13.01956 53.34161,-18.33478 19.72394,-2.1778 33.80455,0.16569 53.83285,-2.49493 3.5077,-0.52216 6.9655,0.33758 10.4013,0.86339 z m 41.4477,4.59521 c 14.076,2.43391 4.5208,42.94502 8.2758,62.95876 -0.1956,47.974841 -2.6494,95.952671 0.8684,143.866611 1.3188,33.37001 -8.2888,66.56985 -3.6671,99.85142 5.6208,23.68704 3.2205,49.04624 0.8174,73.16743 -8.1088,23.40057 4.1111,57.50599 -7.7618,59.52303 -12.1668,4.57081 -14.4915,-33.88034 -11.9511,-54.51402 -1.5969,-35.19535 -9.1765,-71.2211 0.1856,-106.01438 1.9492,-32.25282 0.073,-64.69028 -2.472,-96.79203 3.704,-58.53124 0.9001,-117.310591 -2.7239,-175.794621 -1.7339,-5.53658 12.5506,-6.30414 18.4287,-6.2522 z m 61.45606,28.41202 c 13.427,8.88101 18.9493,11.94914 34.8242,24.10449 20.8646,11.96929 37.1237,29.427221 47.5839,56.129521 9.5151,19.35319 16.2984,49.91155 18.1694,75.69579 0.9025,22.21188 2.5785,44.76303 -1.677,66.97648 -5.9777,27.71815 -15.9277,54.32165 -32.1339,71.52872 -10.8873,15.7001 -5.6532,22.58375 -15.8681,30.67117 -14.3314,11.3464 -28.8087,21.03277 -39.4951,32.86263 -10.0875,19.75689 -11.6284,13.97135 -26.42416,26.21665 -20.6674,17.69315 -13.3966,-11.54089 -13.8503,-15.75449 -3.7721,-35.02905 -9.1765,-71.22111 0.1856,-106.01438 3.3506,-29.43087 -2.4228,-58.62323 -4.0519,-87.87187 1.0816,-26.70264 0.9855,-53.29034 -1.9353,-79.90377 0.1064,-35.13018 -8.87076,-67.980701 -1.19456,-102.759701 4.09706,-16.0072 27.95592,2.886 35.86722,8.11876 z"
       id="path2226"
       inkscape:connector-curvature="0"
       sodipodi:nodetypes="ccccccccscccccccsccccccccccccczzzzcccccccccccccccscccccsccsccccs" />
    <path
       sodipodi:nodetypes="ccccccccscccccccsccccccccccccczzzzcccccccccccccccscccccsccsccccs"
       inkscape:connector-curvature="0"
       id="path867"
       d="M 18.25915,5.99613 C 6.1619,3.55271 -6.34853,13.12566 12.44666,16.89451 c 23.84914,8.099089 8.86069,42.789289 13.69583,62.749379 -0.37875,35.695691 0.8576,71.439531 -2.37422,107.015961 5.61708,24.56801 -0.7598,48.36614 -1.98752,72.62011 1.73752,26.00301 2.57072,52.32316 3.40418,77.87924 -2.32788,21.24767 -2.13967,43.23584 0.95145,65.03629 0.32267,28.30158 -1.1594,56.58459 -2.15262,84.86263 -8.70952,7.24474 -13.34427,15.97715 -9.71277,21.99151 3.61048,5.97956 15.4292,4.09213 26.72922,5.74548 51.3836,-3.38026 102.95842,1.39957 154.38919,-2.0382 35.4215,-0.58839 70.9817,-0.85813 102.75458,-18.82815 21.0242,-15.78113 63.5919,-23.19605 86.8051,-47.20878 17.1062,-13.84428 43.1539,-50.15679 52.9687,-89.51179 6.6868,-41.07838 15.6545,-48.11039 19.215,-94.40076 -2.3477,-21.91803 -6.0781,-50.06721 -10.9758,-64.50706 -5.3274,-23.69531 -14.6697,-56.57089 -28.83,-77.51804 C 398.91758,93.549449 391.47208,76.162119 362.68528,54.324559 334.35038,34.358659 301.91588,21.582369 267.8571,15.28086 219.9576,5.4385 174.8113,7.69208 124.23259,6.80367 111.19653,5.90667 81.85973,5.36029 62.00829,6.92364 47.43677,6.05169 32.79834,6.59198 18.25915,5.99613 Z M 196.4887,26.477389 c 9.5695,17.31629 2.8955,42.08897 5.0522,62.28888 0.6493,43.479211 -1.3483,86.956091 1.3563,130.385291 -1.7744,26.57107 -5.6972,52.99053 -3.7938,79.72084 -1.3727,17.54178 0.5806,34.95349 2.3579,52.28755 -0.294,22.33207 -3.5762,44.48698 -4.4766,66.67792 2.1874,20.46038 9.6925,45.18279 -3.2351,63.22806 -16.9414,11.36043 -39.68465,3.22718 -59.09154,5.7639 -25.01001,2.92199 -61.5835,-18.87011 -61.68094,-34.34293 -0.0974,-15.47282 0.19414,-53.34414 -0.0974,-82.79643 -0.29158,-29.45229 1.04535,-53.20333 0,-93.80994 -1.04535,-40.60661 0,-131.62631 0,-149.16005 0,-17.53374 -3.28166,-53.656151 6.03322,-80.276771 16.52368,-16.45265 32.30911,-13.01956 53.34161,-18.33478 19.72394,-2.1778 33.80455,0.16569 53.83285,-2.49493 3.5077,-0.52216 6.9655,0.33758 10.4013,0.86339 z m 41.4477,4.59521 c 14.076,2.43391 4.5208,42.94502 8.2758,62.95876 -0.1956,47.974841 -2.6494,95.952671 0.8684,143.866611 1.3188,33.37001 -8.2888,66.56985 -3.6671,99.85142 5.6208,23.68704 3.2205,49.04624 0.8174,73.16743 -8.1088,23.40057 4.1111,57.50599 -7.7618,59.52303 -12.1668,4.57081 -14.4915,-33.88034 -11.9511,-54.51402 -1.5969,-35.19535 -9.1765,-71.2211 0.1856,-106.01438 1.9492,-32.25282 0.073,-64.69028 -2.472,-96.79203 3.704,-58.53124 0.9001,-117.310591 -2.7239,-175.794621 -1.7339,-5.53658 12.5506,-6.30414 18.4287,-6.2522 z m 61.45608,28.41202 c 13.427,8.88101 18.9493,11.94914 34.8242,24.10449 20.8646,11.96929 37.1237,29.427221 47.5839,56.129521 9.5151,19.35319 16.2984,49.91155 18.1694,75.69579 0.9025,22.21188 2.5785,44.76303 -1.677,66.97648 -5.9777,27.71815 -15.9277,54.32165 -32.1339,71.52872 -10.8873,15.7001 -5.6532,22.58375 -15.8681,30.67117 -14.3314,11.3464 -28.8087,21.03277 -39.4951,32.86263 -10.0875,19.75689 -11.6284,13.97135 -26.42418,26.21665 -20.6674,17.69315 -13.3966,-11.54089 -13.8503,-15.75449 -3.7721,-35.02905 -9.1765,-71.22111 0.1856,-106.01438 3.3506,-29.43087 -2.4228,-58.62323 -4.0519,-87.87187 1.0816,-26.70264 0.9855,-53.29034 -1.9353,-79.90377 0.1064,-35.13018 -8.87076,-67.980701 -1.19456,-102.759701 4.09706,-16.0072 27.95594,2.886 35.86724,8.11876 z"
       style="display:inline;opacity:1;vector-effect:none;fill:#000000;fill-opacity:1;stroke:none;stroke-width:0.1;stroke-linecap:butt;stroke-linejoin:miter;stroke-miterlimit:4;stroke-dasharray:none;stroke-dashoffset:0;stroke-opacity:1" />
  </g>
  <g
     inkscape:groupmode="layer"
     id="layer3"
     inkscape:label="Layer 3"
     style="display:none">
    <path
       style="color:#000000;font-style:normal;font-variant:normal;font-weight:normal;font-stretch:normal;font-size:medium;line-height:normal;font-family:sans-serif;font-variant-ligatures:normal;font-variant-position:normal;font-variant-caps:normal;font-variant-numeric:normal;font-variant-alternates:normal;font-feature-settings:normal;text-indent:0;text-align:start;text-decoration:none;text-decoration-line:none;text-decoration-style:solid;text-decoration-color:#000000;letter-spacing:normal;word-spacing:normal;text-transform:none;writing-mode:lr-tb;direction:ltr;text-orientation:mixed;dominant-baseline:auto;baseline-shift:baseline;text-anchor:start;white-space:normal;shape-padding:0;clip-rule:nonzero;display:inline;overflow:visible;visibility:visible;opacity:1;isolation:auto;mix-blend-mode:normal;color-interpolation:sRGB;color-interpolation-filters:linearRGB;solid-color:#000000;solid-opacity:1;vector-effect:none;fill:#ffffff;fill-opacity:1;fill-rule:nonzero;stroke:none;stroke-width:0.75px;stroke-linecap:butt;stroke-linejoin:miter;stroke-miterlimit:4;stroke-dasharray:none;stroke-dashoffset:0;stroke-opacity:1;color-rendering:auto;image-rendering:auto;shape-rendering:auto;text-rendering:auto;enable-background:accumulate"
       d="m 31.5799,48.323779 3.14562,10.413841 -0.84154,43.18965 2.04729,44.49434 -1.17201,79.53735 -0.44192,57.25334 -0.40389,44.84532 -3.54633,-17.79785 c -0.0609,-14.84865 0.1242,-29.41558 0.3548,-43.86735 0.0894,-5.60388 -1.99,-13.90317 -1.89862,-19.48212 0.073,-4.45736 2.3186,-6.19713 2.37944,-10.64973 0.182,-13.31982 0.28282,-26.64051 0.14274,-40.09463 -0.0441,-4.23891 1.34631,-7.91891 1.34342,-12.17988 -0.002,-3.21137 -2.66317,-8.5452 -2.66416,-11.75715 -0.01,-30.93655 0.0372,-61.91646 0.16142,-93.24353 0.0148,-3.72169 1.58823,-7.45042 1.61269,-11.18691 0.039,-5.960891 -0.54399,-11.627401 -0.50617,-17.623561 z"
       id="path2231"
       inkscape:connector-curvature="0"
       sodipodi:nodetypes="ccccccccsssssssscc" />
    <path
       style="display:inline;opacity:1;vector-effect:none;fill:#ffffff;fill-opacity:1;stroke:none;stroke-width:0.1;stroke-linecap:butt;stroke-linejoin:miter;stroke-miterlimit:4;stroke-dasharray:none;stroke-dashoffset:0;stroke-opacity:1"
       d="m 403.80609,229.37728 c 0.8737,0.27741 3.46129,36.51759 -3.09881,65.82162 -2.26369,23.43482 -36.4385,70.62562 -38.7048,89.98018 -5.2154,6.62222 -23.1944,13.07497 -34.90749,28.33682 -13.5239,17.62125 -30.5462,29.28604 -42.3481,39.54171 l -2.11222,-2.05832 c 8.37951,-8.04751 24.39021,-16.1333 32.31211,-29.53058 8.0639,-13.63746 20.23271,-19.36942 37.5256,-31.90812 10.41591,-7.55238 10.7776,-27.90971 20.86271,-38.45889 31.23439,-41.22946 30.48379,-91.45604 30.471,-121.72442 z"
       id="path2237"
       inkscape:connector-curvature="0"
       sodipodi:nodetypes="cccsccsscc" />
    <path
       style="display:inline;fill:#ffffff;stroke:#000000;stroke-width:0.75px;stroke-linecap:butt;stroke-linejoin:miter;stroke-opacity:1"
       d="m 194.49142,482.2501 c 1.53947,-1.10617 3.63041,-3.35195 4.72651,-5.50902 1.07998,-2.12537 1.48496,-4.04946 1.63874,-6.96178 1.80231,0.70624 2.25265,4.42748 1.77286,6.68106 -0.3635,1.70735 -1.86352,3.06731 -3.28847,4.0756 -1.39959,0.99039 -2.34761,1.49614 -4.84966,1.71415 -2e-5,10e-6 2e-5,-1e-5 2e-5,-1e-5 z"
       id="path2275"
       inkscape:connector-curvature="0"
       sodipodi:nodetypes="cacaacc" />
    <path
       sodipodi:nodetypes="cacaacc"
       inkscape:connector-curvature="0"
       id="path2277"
       d="m 240.85799,471.25029 c 1.25218,-1.42326 2.7862,-4.08078 3.37062,-6.4287 0.57583,-2.31344 0.53896,-4.27932 0.0357,-7.15197 1.91479,0.28404 3.18822,3.80952 3.22604,6.11329 0.0287,1.74537 -1.12815,3.40709 -2.29067,4.70928 -1.14185,1.27905 -1.95229,1.98451 -4.34171,2.75811 -1e-5,0 2e-5,-10e-6 2e-5,-10e-6 z"
       style="display:inline;fill:#ffffff;stroke:#000000;stroke-width:0.75px;stroke-linecap:butt;stroke-linejoin:miter;stroke-opacity:1" />
  </g>
</svg>
