<?xml version="1.0" encoding="UTF-8" standalone="no"?>
<!-- Created with Inkscape (http://www.inkscape.org/) -->

<svg
   xmlns:dc="http://purl.org/dc/elements/1.1/"
   xmlns:cc="http://creativecommons.org/ns#"
   xmlns:rdf="http://www.w3.org/1999/02/22-rdf-syntax-ns#"
   xmlns:svg="http://www.w3.org/2000/svg"
   xmlns="http://www.w3.org/2000/svg"
   xmlns:sodipodi="http://sodipodi.sourceforge.net/DTD/sodipodi-0.dtd"
   xmlns:inkscape="http://www.inkscape.org/namespaces/inkscape"
   width="210mm"
   height="297mm"
   viewBox="0 0 210 297"
   version="1.1"
   id="svg74"
   inkscape:version="0.92.3 (2405546, 2018-03-11)"
   sodipodi:docname="dragonIcon1.svg">
  <defs
     id="defs68">
    <clipPath
       clipPathUnits="userSpaceOnUse"
       id="clipPath92">
      <path
         sodipodi:nodetypes="ccac"
         inkscape:connector-curvature="0"
         id="path94"
         d="m 132.54773,-17.710317 c 1.05235,-1.114016 14.95609,1.498219 15.60504,3.709111 0.63905,0.711702 -6.17381,4.6693822 -9.47055,3.821109 -3.13542,-0.806773 -5.89775,-5.758996 -6.13449,-7.53022 z"
         style="display:inline;fill:#aa0000;stroke:none;stroke-width:0.26458332px;stroke-linecap:butt;stroke-linejoin:miter;stroke-opacity:1" />
    </clipPath>
  </defs>
  <sodipodi:namedview
     id="base"
     pagecolor="#ffffff"
     bordercolor="#666666"
     borderopacity="1.0"
     inkscape:pageopacity="0.0"
     inkscape:pageshadow="2"
     inkscape:zoom="0.35"
     inkscape:cx="40"
     inkscape:cy="560"
     inkscape:document-units="mm"
     inkscape:current-layer="layer1"
     showgrid="false"
     inkscape:window-width="1366"
     inkscape:window-height="682"
     inkscape:window-x="0"
     inkscape:window-y="31"
     inkscape:window-maximized="1" />
  <metadata
     id="metadata71">
    <rdf:RDF>
      <cc:Work
         rdf:about="">
        <dc:format>image/svg+xml</dc:format>
        <dc:type
           rdf:resource="http://purl.org/dc/dcmitype/StillImage" />
        <dc:title></dc:title>
      </cc:Work>
    </rdf:RDF>
  </metadata>
  <g
     inkscape:label="Layer 1"
     inkscape:groupmode="layer"
     id="layer1">
    <g
       style="display:inline"
       id="g197"
       transform="translate(-168.67791,9.2800279)">
      <path
         transform="scale(0.26458333)"
         inkscape:connector-curvature="0"
         id="path109"
         d="m 990.95117,-27.410156 c -1.16458,-0.0066 -2.39421,-0.005 -3.70117,0.0059 -15.58579,0.127797 -23.30408,1.699549 -37.17578,7.566406 l -7.82422,3.308594 13,0.707031 c 22.11738,1.201155 38.41635,6.9186589 48.9023,17.1562504 4.2906,4.1889128 10.5977,13.7284036 10.5977,16.0292966 0,0.251868 -6.6838,0.200613 -14.85156,-0.113281 -38.1961,-1.467965 -89.90403,11.925703 -114.91992,50.164062 -10.7181,16.383311 -12.47475,40.680427 -11.74024,63.708987 l -0.24414,5.83007 C 860.37298,116.94528 834.99135,93.004888 815.83984,80.451172 804.44865,72.984284 788.93859,69.27602 777.11914,67.398438 l -8.45703,-1.345704 0.59961,-3.363281 c 0.74022,-4.140552 6.20935,-16.711341 10.22461,-23.5 l 2.98242,-5.041015 -9.6875,0.220703 c -34.18643,0.778549 -67.95424,9.320115 -90.38086,22.863281 -12.14733,7.335579 -23.94756,16.804774 -32.71875,26.253906 -3.69146,3.976762 -6.53769,7.290412 -6.32422,7.363281 0.21355,0.0731 6.55542,0.54006 14.0918,1.03711 26.37948,1.739694 43.16151,4.808838 60.58203,11.083981 17.22074,6.20318 25.89127,10.90855 38.69922,20.9961 4.46528,3.51689 8.18168,6.18962 8.25976,5.93945 0.0782,-0.25028 -0.0753,-4.73169 -0.34179,-9.95898 -0.57744,-11.32172 -0.2075,-31.229752 0.60351,-32.480473 0.67665,-1.043384 10.67291,3.80266 20.67188,10.023437 20.47389,13.815496 40.7,44.014896 44.18945,73.029296 -12.95546,3.58097 -55.52539,15.83959 -69.05273,26.02344 -10.67241,8.03456 -20.49015,18.64827 -27.15625,32.41015 -6.77341,13.98345 -9.83873,30.33609 -6.38477,47.40235 4.7012,23.22892 19.86266,41.00004 39.70117,50.77148 19.42349,9.567 40.60565,10.1941 59.73047,4.34766 15.42769,-4.71477 28.46492,-13.29096 38.88281,-23.93164 l -11.9375,284.43945 c 9.88842,57.26158 62.07301,47.11939 86.54493,50.28516 283.62509,2.88113 345.45969,-160.35372 336.08589,-267.79688 -15.4351,-176.91844 -163.7648,-214.29991 -216.0664,-223.46484 -57.8791,-10.14228 -84.78386,18.89465 -102.47262,-7.26367 -9.18686,-13.58566 -10.31565,-36.74686 2.09375,-49.156252 10.42367,-10.423699 29.32369,-15.955838 46.99807,-13.759766 4.3064,0.53506 7.965,1.123242 8.1308,1.308594 0.166,0.185348 0.8532,9.562891 1.5274,20.837894 0.6743,11.275 1.5157,20.8032 1.8691,21.17382 0.3534,0.37062 10.5425,3.42937 22.6426,6.79883 12.1,3.36947 43.1419,12.00849 68.9824,19.19727 25.8404,7.18877 47.449,13.24992 48.0196,13.46875 0.3144,0.12068 2.6677,-5.849 5.6191,-13.78321 -1.2199,0.0646 -4.5714,-0.10908 -5.209,-2.91406 -0.8206,-3.60969 -0.8026,-4.83224 -1.2148,-11.93945 -3.3747,1.83678 -7.4544,12.45046 -14.0196,8.51367 -12.8787,-2.42157 -6.002,-8.77083 -6.8613,-15.49219 -3.1812,3.87532 -7.0918,11.9224 -15.4824,7.86524 -8.643,-3.047 -3.9908,-7.84078 -4.793,-13.81445 -4.0323,4.40249 -8.2274,9.72424 -14.0156,7.71289 -8.8619,-1.90703 -5.0866,-7.91679 -6.6465,-13.85743 -2.833,3.27516 -7.5198,10.13834 -15.1113,8.74024 -7.5914,-1.3981 -17.4847,-10.40707 -18.1953,-22.40039 5.8975,-8.160687 25.854,-7.723466 32.0839,-3.267581 6.23,4.455881 2.3288,9.809621 3.0918,13.353511 4.2985,-1.75942 9.4556,-10.2866 14.4571,-5.5664 7.0219,2.69991 3.233,9.03668 4.9433,12.30078 3.7307,-1.53411 7.3539,-9.95186 12.7129,-6.98828 6.8742,1.95344 7.7709,7.59317 7.9942,13.125 4.264,-4.06461 7.605,-8.00511 12.3515,-6.99805 9.2922,1.51213 7.5211,7.23887 8.875,11.98828 3.2733,-3.47706 6.8476,-7.63331 14.084,-5.58789 3.9149,-11.29817 7.0148,-20.78023 6.6817,-21.11328 -0.2317,-0.23161 -6.7949,-3.572134 -14.586,-7.421874 -17.1159,-8.45718 -29.727,-16.042502 -41.7558,-25.113281 -14.2324,-10.732588 -14.1692,-10.633002 -14.8028,-22.980469 -0.6446,-12.562168 -3.8157,-24.249573 -10.2988,-37.957031 -4.1398,-8.7529466 -14.0436,-24.576417 -19.6934,-31.464844 l -2.3984,-2.923828 -0.6523,17.4238282 c -0.3595,9.5821745 -0.9272,18.6307448 -1.2618,20.1093748 l -0.6074,2.689453 -4.6465,-5.230468 c -16.5392,-18.6178431 -36.845,-30.967498 -59.6445,-36.275391 -5.2278,-1.21705 -10.14665,-1.70755 -18.29883,-1.753906 z m 53.27153,64.714844 c 0.7738,6.31e-4 1.7113,0.217608 2.832,0.542968 1.7932,0.520577 4.0294,1.405769 6.5625,2.56836 5.0661,2.325188 11.3042,5.747943 17.3691,9.529296 6.065,3.78135 11.9498,7.919814 16.3067,11.671876 2.1784,1.876032 3.9743,3.652478 5.2265,5.263671 1.2202,1.569959 1.905,2.970963 1.8672,4.257813 0.093,0.337965 0.066,0.714355 -0.1172,0.998047 -0.2031,0.31525 -0.5057,0.569439 -0.8867,0.818359 -0.7619,0.497809 -1.8624,0.958192 -3.248,1.394531 -2.7713,0.872678 -6.6613,1.627787 -10.9317,2.052735 -8.5408,0.849891 -18.5779,0.432179 -24.1172,-3.34375 -5.23,-3.565232 -8.6316,-10.6737 -10.5996,-17.708985 -1.968,-7.03528 -2.507,-13.961197 -1.75,-17.451171 l 0.051,-0.236329 0.2149,-0.103515 c 0.3507,-0.176995 0.7563,-0.254285 1.2207,-0.253906 z m -10.086,189.523432 c 42.0189,0.0414 86.98,13.38568 123.2539,54.60157 47.2955,53.73918 28.8621,158.49833 -16.1621,214.15429 -15.252,18.8535 -66.0498,51.19516 -97.6816,58.98829 -49.39342,12.16913 -81.11526,-6.46094 -81.11526,-6.46094 -17.4364,-11.67379 -10.30574,-164.61929 -7.07031,-297.99414 4.24214,-5.4732 51.46107,-22.00045 65.84377,-22.89063 4.271,-0.26434 8.5848,-0.40272 12.9316,-0.39844 z m -198.01561,10.52344 c -1.89789,6.76207 -6.46945,14.92992 -9.92968,19.21875 -3.64615,4.51931 -15.21041,8.64586 -19.12891,9.84375 -3.6195,1.10635 -7.86716,0.62153 -9.7793,-0.32031 -1.49711,-0.73738 -3.06746,-3.15459 -3.08398,-3.23633 -0.0571,-0.28078 -0.0113,-2.30299 0.92969,-4.24804 1.0495,-2.16662 3.38422,-5.10643 6.85156,-7.7168 3.5989,-2.70936 8.54097,-5.11874 14.63281,-7.32031 3.10228,-1.12116 15.8377,-5.1952 19.50781,-6.22071 z"
         style="display:inline;opacity:0.98999999;fill:#000008;fill-opacity:1;stroke-width:0.99999994" />
      <path
         sodipodi:nodetypes="ccac"
         inkscape:connector-curvature="0"
         id="path119"
         d="m 275.94885,9.9694823 c 1.36812,-0.6904522 13.55855,6.4880587 13.41815,8.7879447 0.35939,0.88642 -7.39259,2.295366 -10.20536,0.377976 -2.67513,-1.823576 -3.5916,-7.419558 -3.21279,-9.1659207 z"
         style="display:inline;fill:#d40000;stroke:#d40000;stroke-width:0.26458332px;stroke-linecap:butt;stroke-linejoin:miter;stroke-opacity:1" />
      <ellipse
         clip-path="url(#clipPath92)"
         style="opacity:0.98999999;fill:#ffff00;fill-opacity:1;stroke:none;stroke-width:0.59308451;stroke-linecap:round;stroke-miterlimit:4;stroke-dasharray:none;stroke-opacity:1;paint-order:normal"
         id="ellipse121"
         cx="139.5321"
         cy="-13.892514"
         rx="0.63476509"
         ry="4.2429037"
         transform="rotate(19.851631,125.15965,405.86517)" />
    </g>
  </g>
</svg>
