<?xml version="1.0" standalone="yes"?>
<svg xmlns="http://www.w3.org/2000/svg" width="644" height="644">
<path style="fill:#000000; stroke:none;" d="M106 68L106 70C116.416 73.3892 127.301 78.6368 132.543 89.0038C136.588 97.0025 134.179 109.401 134.179 118C134.179 134.921 135 152.007 135 169C135 184.891 135.996 201.148 134.91 217C134.386 224.657 131.796 232.331 132.043 240C132.494 253.975 136.513 267.796 135.96 282C135.618 290.785 130.044 298.809 130.133 307C130.361 328.095 132.563 350.297 134.454 371C134.923 376.139 131.505 380.985 132.024 386C132.521 390.808 135.212 394.908 135.406 400C135.69 407.454 131.021 414.081 131.314 421C131.953 436.09 136 450.693 136 466C136 485.727 134.455 505.487 133.119 525C132.728 530.706 134.64 536.222 133.674 542C132.174 550.984 115.871 560.425 125.329 568.347C134.422 575.963 158.836 570 170 570C210.642 570 251.219 572.882 292 570.089C317.629 568.334 346.022 570.819 371 564.621C396.102 558.393 418.921 545.011 442 533.9C448.426 530.807 455.565 529.781 462 526.677C473.57 521.095 486.521 510.499 495.715 501.572C512.644 485.133 531.754 459.26 540.184 437C542.671 430.436 540.79 423.476 543.133 417C552.27 391.743 556.738 367.373 561.805 341C563.219 333.641 568.569 327.426 568.956 320C569.272 313.95 566.109 309.703 565.212 304C563.205 291.235 562.428 279.565 559.529 267C557.197 256.89 557.397 244.59 554.343 235.043C552.852 230.38 547.68 228.461 545.699 223.996C542.863 217.605 542.114 210.341 539.201 204C523.023 168.787 501.627 136.601 471 112.247C458.874 102.604 444.236 99.5695 431 92.3055C416.055 84.1036 400.114 81.2903 384 77.24C346.579 67.8342 311.366 65 273 65L158 65C142.416 65 120.326 61.0964 106 68z"/>
<path style="fill:#ffffff; stroke:none;" d="M271 84.4244C259.126 85.988 245.434 86.2749 234.015 89.5718C224.317 92.3717 211.767 100.213 203 105.536C194.915 110.445 187.329 114.251 182.572 123.039C178.638 130.307 181 142.925 181 151L181 216C181 290.957 180 365.975 180 441C180 468.417 171.969 508.109 190.495 529.867C200.946 542.143 218.249 544.695 233 546.171C250.229 547.894 268.734 549.967 286 546.66C290.667 545.766 294.427 542.561 299 541.35C304.9 539.788 309.893 543.229 314.999 542.045C325.538 539.601 324.091 521.947 323.996 514C323.877 503.972 319.27 494.766 319.015 485C318.761 475.307 321.915 467.354 322.9 458C324.167 445.962 323.511 434.065 324.039 422C324.291 416.265 325.783 410.723 324.291 405C323.18 400.739 319.919 397.372 319.228 393C317.899 384.586 318.901 373.678 319.004 365C319.206 347.993 323.219 331.777 323.961 315C325.012 291.214 322.366 267.542 321.275 244C320.423 225.629 323 205.701 323 187L323 122C323 113.383 324.988 100.915 320.822 93.0193C319.169 89.8865 315.725 87.4171 312.104 88.7616C305.8 91.1027 302.484 97.5374 294.214 95.8827C290.644 95.1685 289.343 89.5436 286.867 87.2284C282.572 83.2109 276.429 83.7095 271 84.4244M348.39 94.0286C342.027 98.0538 344 109.722 344 116C344 136.714 343 157.276 343 178C343 194.658 345.271 211.457 344.946 228C344.458 252.779 341.128 278.086 342.17 303C342.516 311.287 345.301 318.872 346.165 327C347.898 343.302 347.454 362.62 346.942 379C346.778 384.257 343.932 388.858 343.209 394C341.204 408.261 341.995 422.701 342 437C342.006 453.336 347.137 469.268 346.645 486C346.398 494.406 341.932 502.129 342.375 511C342.702 517.549 344.48 530.889 354.001 527.076C358.732 525.181 364.556 521.246 367.401 516.985C369.192 514.303 369.234 510.87 372.148 508.988C377.19 505.73 383.544 507.79 389 506.39C396.046 504.582 402.979 498.423 408.657 494.081C412.698 490.99 412.705 485.042 415.648 481.09C421.064 473.816 428.87 466.612 435.224 460.212C441.772 453.615 453.638 451.836 459.258 444.621C466.383 435.476 468.144 422.172 473.569 412.104C475.723 408.106 480.189 405.887 482.671 401.996C487.822 393.919 493.104 382.053 496.407 373C500.88 360.739 500.636 349.315 502.708 337C504.075 328.877 507.048 321.323 507.83 313C508.548 305.359 506.373 297.621 506.039 290C505.03 266.95 504.341 244.336 497.895 222C496.128 215.876 491.928 210.764 489.348 205C482.572 189.864 477.601 172.809 465.999 160.428C458.534 152.462 449.225 148.55 441 141.78C424.554 128.244 410.342 115.033 390 108.139C380.537 104.932 370.929 100.773 362 96.3696C358.335 94.5624 352.371 91.5102 348.39 94.0286z"/>
<path style="fill:#000000; stroke:none;" d="M641 196L641 200L642 200L641 196M9.66667 197.333L10.3333 197.667L9.66667 197.333z"/>
</svg>
